<svg width="93" height="94" viewBox="0 0 93 94" fill="none" xmlns="http://www.w3.org/2000/svg">
<path fill-rule="evenodd" clip-rule="evenodd" d="M46.2507 8.09554L16.9127 23.3042L46.2507 38.5129L75.5888 23.3042L46.2507 8.09554ZM48.3787 0.518769C47.0444 -0.172923 45.4571 -0.172923 44.1228 0.518769L8.08726 19.1994C4.75969 20.9244 4.75969 25.6841 8.08725 27.409L44.1228 46.0897C45.4571 46.7814 47.0444 46.7814 48.3787 46.0897L84.4142 27.409C87.7418 25.6841 87.7418 20.9244 84.4142 19.1994L48.3787 0.518769Z" fill="#2B2A2A"/>
<path d="M4.39434 33.2784C4.27167 33.271 4.14731 33.2672 4.02154 33.2672C1.89359 33.2672 0.168549 34.3506 0.168549 35.6871L0.16855 65.966C0.16855 67.3025 1.89359 68.3859 4.02155 68.3859C6.1495 68.3859 7.87454 67.3025 7.87454 65.966L7.87454 43.1706L44.4759 61.9811C44.5594 62.024 44.6437 62.0635 44.7288 62.0997C45.7718 62.6042 47.0252 62.6319 48.1285 62.0649L84.6262 43.3076V65.5L46.3837 85.154L17.5283 70.3016C16.0561 69.545 14.0742 70.4659 13.1015 72.3585C12.1288 74.2512 12.5338 76.3988 14.006 77.1554L45.197 93.2082C46.002 93.622 46.9594 93.5341 47.8209 93.0601C47.9333 93.0151 48.0446 92.9645 48.1544 92.908L90.2107 71.2941C90.4533 71.1694 90.6771 71.0224 90.8807 70.8568C91.7654 70.3714 92.3322 69.6238 92.3322 68.7851L92.3322 35.9352C92.3322 34.4721 90.6071 33.286 88.4792 33.286C87.4105 33.286 86.4435 33.5851 85.7455 34.0682L46.3836 54.2975L6.2895 33.6919C5.68336 33.3804 5.0316 33.2491 4.39434 33.2784Z" fill="#2B2A2A"/>
</svg>
