<svg width="97" height="93" viewBox="0 0 97 93" fill="none" xmlns="http://www.w3.org/2000/svg">
<path fill-rule="evenodd" clip-rule="evenodd" d="M56.606 0.038902C55.47 0.0902768 54.4225 0.250478 54.2784 0.394935C54.1344 0.539392 53.7339 0.657609 53.3884 0.657609C52.623 0.657609 50.5457 1.46359 50.5457 1.76079C50.5457 1.87873 50.8752 2.19139 51.2776 2.456C52.0131 2.93909 54.5701 5.478 55.6926 6.83943C56.5209 7.84428 58.2585 10.7431 58.2585 11.1207C58.2585 11.2905 58.3516 11.4303 58.465 11.4308C58.5785 11.4314 58.8975 12.0217 59.1732 12.7428C59.4492 13.4637 59.801 14.2871 59.955 14.5722C60.6309 15.8237 61.0962 18.3789 61.1226 20.9827C61.148 23.4915 61.1987 23.7558 61.6328 23.6434C61.898 23.5746 62.1148 23.4327 62.1148 23.3277C62.1148 23.146 62.8591 22.7852 65.2473 21.8091C65.9871 21.5069 67.2079 21.3732 69.2323 21.3732C72.3182 21.3732 73.674 21.7041 75.6754 22.9457C76.2406 23.2962 76.8026 23.5829 76.9243 23.5829C77.0463 23.5829 77.7796 24.2353 78.5544 25.033C80.054 26.577 81.3473 28.7425 81.9665 30.7469L82.3452 31.9725L82.546 31.1612C82.6565 30.7152 82.8826 29.7286 83.0482 28.969C83.2137 28.2094 83.4677 27.0579 83.6123 26.4102C83.7572 25.7622 83.8756 24.6764 83.8756 23.9972C83.8756 23.318 83.7572 22.2323 83.6123 21.5843C83.4677 20.9366 83.2135 19.785 83.0476 19.0255C82.8818 18.2659 82.6502 17.2066 82.5328 16.6713C82.2238 15.2596 80.1672 11.2629 78.842 9.49794C77.6675 7.93349 74.2673 4.52674 73.8789 4.52536C73.7591 4.5248 73.4021 4.28285 73.0859 3.9873C71.9694 2.94434 66.7361 0.657609 65.4657 0.657609C65.1982 0.657609 64.8619 0.549335 64.7178 0.416755C64.4091 0.132537 59.5492 -0.0936781 56.606 0.038902ZM30.1622 0.822782C24.6685 1.81161 19.8037 4.45658 16.2782 8.37156C15.8091 8.89221 15.2362 9.517 15.0048 9.76006C14.434 10.3592 12.8086 13.0293 12.8086 13.3673C12.8086 13.517 12.6846 13.6394 12.5331 13.6394C12.3816 13.6394 12.2577 13.7759 12.2577 13.943C12.2577 14.1098 12.0869 14.6382 11.8781 15.1168C11.1374 16.8147 10.6433 18.4918 10.4617 19.9232C10.2565 21.542 10.4997 21.7199 11.9271 20.9959C13.7603 20.0657 18.2086 19.1636 20.9568 19.1644C23.4587 19.1652 27.4622 19.769 29.7958 20.4971C30.9392 20.854 33.4877 22.1394 34.0403 22.638C34.7545 23.283 34.8449 23.1167 34.8449 21.155C34.8449 17.6403 36.0233 14.7981 38.5963 12.107C39.6565 10.9978 42.2122 9.22007 42.746 9.22007C42.8989 9.22007 43.4228 9.02037 43.9103 8.77648C44.8634 8.29975 50.0926 8.11137 51.3206 8.50939C51.8878 8.69334 51.923 8.6602 51.6415 8.20832C51.2669 7.60701 48.1705 5.13937 46.4139 4.04227C44.6935 2.96782 41.891 1.83812 39.3899 1.21085C38.0112 0.865042 31.4587 0.589385 30.1622 0.822782ZM46.0049 16.333C43.6511 17.3099 42.5576 19.397 42.9666 22.132C43.7608 27.4418 50.9162 28.3075 53.0584 23.3528C53.6121 22.0721 53.754 19.8591 53.3003 19.5779C53.1488 19.484 53.0248 19.1766 53.0248 18.8946C53.0248 18.1952 50.7457 16.2344 49.6855 16.0217C48.3165 15.7472 47.1863 15.8427 46.0049 16.333ZM15.0122 23.9268C14.6335 24.0953 13.7658 24.4648 13.0841 24.748C12.4023 25.0311 11.4726 25.4661 11.0181 25.7147C10.5636 25.963 9.94773 26.2997 9.64942 26.4627C6.71391 28.0677 3.35007 31.3383 1.36432 34.518L0 36.7028V47.1987V57.6947L0.757498 58.863C1.17426 59.5058 1.515 60.1101 1.515 60.2062C1.515 60.8556 6.73622 66.2419 7.05547 65.9218C7.18851 65.7884 7.43202 64.9391 7.59619 64.0348C7.76063 63.1302 8.00882 62.272 8.1482 62.1278C8.2873 61.9834 8.40134 61.595 8.40134 61.2644C8.40134 60.5473 10.0598 56.6829 11.2421 54.6453C12.9744 51.6601 16.6851 47.8277 18.9523 46.6825C19.8153 46.2467 20.5213 45.8108 20.5213 45.7141C20.5213 45.6174 20.1638 45.3796 19.7266 45.1855C18.8273 44.7863 18.1331 44.2339 16.4738 42.5971C15.4827 41.6193 14.642 40.1982 13.2518 37.1492C13.0865 36.7871 12.9571 35.0469 12.9642 33.2823C12.9763 30.1807 13.01 30.0039 13.9707 27.9782C14.5172 26.8256 15.4092 25.41 15.9523 24.8322C16.4958 24.2547 16.9404 23.737 16.9404 23.6824C16.9404 23.473 15.67 23.634 15.0122 23.9268ZM87.4566 27.4868C87.4566 28.0992 87.1816 29.2805 86.4368 31.8692C85.3962 35.4858 82.3874 40.5463 79.613 43.3459C78.3702 44.5999 76.5571 45.866 74.9567 46.5974C73.9502 47.0573 73.9183 47.1084 74.4058 47.4788C74.6904 47.6948 75.0785 47.8757 75.2677 47.8804C75.4572 47.8854 75.612 48.0053 75.612 48.147C75.612 48.2887 75.8525 48.4809 76.1464 48.5745C77.2193 48.9159 79.4116 51.47 80.4721 53.6142L81.5343 55.7612V59.5174C81.5343 61.7372 81.4068 63.5445 81.2225 63.9367C80.0248 66.4858 79.5006 67.3849 78.7293 68.2143C77.8603 69.1493 77.8584 69.1573 78.5131 69.1573C79.4626 69.1573 81.5332 68.4516 83.6002 67.4238C84.5849 66.9341 85.4526 66.4701 85.5284 66.3927C85.6041 66.3151 86.206 65.9008 86.866 65.4716C88.1747 64.6206 90.3485 62.5081 91.8588 60.6203C92.7384 59.5204 94.6183 56.5824 94.6183 56.3073C94.6183 56.2432 94.91 55.5347 95.2668 54.7329C96.6884 51.5366 97.2875 47.3009 96.8694 43.4047C96.5192 40.1433 96.1733 38.9045 94.8103 36.0308C93.2653 32.774 92.2285 31.2615 89.5514 28.3591C88.1163 26.8035 87.4566 26.5287 87.4566 27.4868ZM24.3551 27.8959C20.3841 29.1181 19.2289 33.93 22.1928 36.9022C23.9187 38.633 27.4525 38.726 29.3209 37.0903C30.8998 35.7079 31.4378 34.1404 31.1224 31.8407C30.9701 30.7295 30.7197 30.2426 29.8652 29.3941C28.9221 28.458 26.7358 27.3985 25.9125 27.4786C25.75 27.4943 25.0492 27.6821 24.3551 27.8959ZM69.1389 29.299C67.076 29.7716 66.4579 30.0553 65.5855 30.9301C62.4316 34.0927 64.8925 39.8858 69.3865 39.8776C72.7567 39.8715 75.4479 36.8917 74.943 33.7258C74.6317 31.7736 72.9564 29.8432 71.3037 29.5322C70.7731 29.4325 70.193 29.3109 70.0145 29.2618C69.8361 29.2129 69.4419 29.2294 69.1389 29.299ZM39.3326 33.8026C39.3163 34.866 39.3747 35.7361 39.4623 35.7361C39.5502 35.7361 39.8284 35.5488 40.0807 35.3196C40.3333 35.0906 41.0071 34.6752 41.5784 34.3968L42.6171 33.8899L41.3478 33.1441C40.6498 32.734 40.0785 32.2793 40.0785 32.1338C40.0785 31.9882 39.9174 31.8692 39.7204 31.8692C39.4637 31.8692 39.3541 32.4158 39.3326 33.8026ZM55.5039 32.6229C55.2767 32.7097 55.0288 32.8671 54.953 32.9729C54.8773 33.0784 54.4572 33.3394 54.0195 33.5529C53.5818 33.7662 53.2289 34.065 53.2353 34.2169C53.2413 34.3689 53.7854 34.7915 54.444 35.1558C55.1029 35.5201 55.7328 35.9551 55.8441 36.1225C55.9554 36.2899 56.0482 35.5256 56.0507 34.4241C56.0529 33.3226 56.0237 32.4315 55.986 32.4434C55.9482 32.4553 55.7312 32.5362 55.5039 32.6229ZM45.7118 41.5713C44.3613 41.8762 42.5953 43.7262 42.1381 45.3144C41.5577 47.3313 42.6906 50.0059 44.6367 51.2118C46.4454 52.3329 49.905 51.8821 51.3545 50.3365C52.6623 48.9422 53.1466 46.3533 52.4172 44.6568C51.1776 41.7743 49.0823 40.81 45.7118 41.5713ZM33.7486 44.43C33.5569 44.6615 33.2985 44.851 33.1743 44.851C33.0498 44.851 32.4961 45.1183 31.9435 45.4454L30.9387 46.0398L32.4099 46.9518L33.8808 47.8636L34.034 46.0119C34.1182 44.9938 34.167 44.1265 34.1422 44.0848C34.1174 44.0431 33.9403 44.1986 33.7486 44.43ZM60.4621 46.7507C60.4621 47.8326 60.5089 48.7179 60.5665 48.7179C60.956 48.7179 63.7102 46.8187 63.5521 46.659C63.4433 46.5494 62.9825 46.2875 62.528 46.0773C62.0735 45.8671 61.4229 45.4901 61.0819 45.2393L60.4621 44.7836V46.7507ZM24.2399 53.09C20.8871 54.334 19.6423 56.2929 20.2566 59.3588C20.7516 61.8298 22.9241 63.6354 25.3968 63.6307C27.4696 63.6265 29.3716 62.3993 30.2762 60.4819C30.6679 59.6513 30.9866 58.6843 30.9844 58.3333C30.9734 56.6255 29.5509 54.286 28.047 53.5015C27.1347 53.0259 25.0269 52.798 24.2399 53.09ZM67.1735 54.5053C64.8864 55.0522 63.4921 56.9318 63.4921 59.4674C63.4921 62.0159 64.5454 63.6961 66.7121 64.604C67.8252 65.0703 69.9853 65.1523 70.2407 64.738C70.3343 64.5861 70.628 64.4618 70.8932 64.4618C71.4888 64.4618 73.0228 62.9904 73.6054 61.861C74.1849 60.7371 74.1565 58.4667 73.5483 57.274C72.3179 54.8616 69.9619 53.8382 67.1735 54.5053ZM55.2285 57.2803C55.2285 57.4323 55.0425 57.5566 54.8153 57.5566C54.588 57.5566 54.4021 57.6568 54.4021 57.7797C54.4021 57.9024 53.8917 58.2286 53.2678 58.5045L52.1337 59.0064L53.0612 59.5828C53.5716 59.8999 54.0509 60.2261 54.1267 60.3082C54.2024 60.3899 54.528 60.6796 54.8503 60.9523L55.4362 61.4478L55.4461 59.226C55.4513 58.004 55.4045 57.0041 55.342 57.0041C55.2797 57.0041 55.2285 57.1284 55.2285 57.2803ZM39.2522 58.7851C39.2522 59.4165 39.307 59.4422 40.0785 59.1724C40.533 59.0136 40.9049 58.7092 40.9049 58.4962C40.9049 58.2501 40.6038 58.109 40.0785 58.109C39.3855 58.109 39.2522 58.2181 39.2522 58.7851ZM12.004 62.8791C11.2236 66.3544 11.1102 67.5291 11.2545 70.6334C11.3382 72.4326 11.5192 74.0484 11.6569 74.2241C11.7944 74.3997 11.9825 75.0414 12.0748 75.6501C12.1673 76.2586 12.556 77.4079 12.9389 78.2037C13.3218 78.9995 13.635 79.8375 13.635 80.0662C13.635 80.2949 13.7564 80.4819 13.9052 80.4819C14.0536 80.4819 14.2531 80.7926 14.3481 81.1724C14.4431 81.5522 14.6315 81.8629 14.7665 81.8629C14.9018 81.8629 15.0122 82.0005 15.0122 82.1684C15.0122 82.8492 19.6283 87.9395 20.2458 87.9395C20.3973 87.9395 20.5213 88.037 20.5213 88.156C20.5213 88.2754 20.8888 88.5905 21.3377 88.8562C21.7867 89.1222 22.3134 89.4923 22.5084 89.6788C23.0469 90.1936 24.6176 90.898 27.5793 91.9525C31.5485 93.3659 38.2052 93.3465 42.5353 91.9092C43.2049 91.6868 43.8649 91.4355 44.0023 91.3504C44.2514 91.196 43.3143 90.1492 42.927 90.1492C42.5997 90.1492 39.3654 86.6977 38.8114 85.7574C38.534 85.2865 38.2098 84.9012 38.0908 84.9012C37.9721 84.9012 37.8749 84.7253 37.8749 84.5098C37.8749 84.2946 37.7641 84.0773 37.6289 84.0264C37.2251 83.8754 34.8449 79.2234 34.8449 78.5854C34.8449 78.2611 34.7355 77.996 34.6019 77.996C34.2364 77.996 33.4087 72.9748 33.4751 71.1604C33.5549 68.9847 33.5872 69.0322 32.4746 69.6901C31.161 70.4674 28.7788 71.2938 26.8306 71.6479C25.5877 71.8738 24.8049 71.8415 23.1309 71.4949C21.963 71.2529 20.8053 70.9449 20.5579 70.8101C20.3106 70.6754 19.6484 70.361 19.0867 70.1113C17.3974 69.3612 14.6875 66.656 13.6983 64.733C13.2088 63.7815 12.8086 62.7172 12.8086 62.3678C12.8086 61.1417 12.3252 61.4492 12.004 62.8791ZM44.805 66.4952C43.4415 66.9902 41.7877 68.7126 41.5728 69.8616C41.4729 70.3961 41.4445 71.5774 41.5103 72.4867C41.6202 74.0108 41.7208 74.2252 42.7986 75.2331C44.6687 76.9818 47.069 77.3044 49.4439 76.1263C50.6344 75.5358 50.9705 75.1535 51.6842 73.5766C53.5507 69.4534 49.1459 64.9192 44.805 66.4952ZM59.7701 72.1531C59.7682 73.5264 59.6049 74.9547 59.3864 75.5101C58.6843 77.2952 57.8871 78.8246 57.6588 78.8246C57.534 78.8246 57.4321 78.9807 57.4321 79.1712C57.4321 80.1628 52.2665 84.064 50.9452 84.0701C50.6347 84.0715 50.2271 84.2264 50.0395 84.4145C49.5588 84.8965 44.2861 84.881 43.4319 84.3952C42.8457 84.0618 42.8143 84.0737 43.0606 84.5349C43.7269 85.7823 47.3954 88.5891 50.2169 90.0099C53.584 91.7059 56.514 92.3608 60.6822 92.3489C66.3259 92.3331 71.194 90.73 75.3291 87.526C79.3532 84.4079 81.0357 82.1038 83.5996 76.2006C83.898 75.5137 84.496 71.897 84.3376 71.7382C84.2737 71.6741 83.6787 71.8213 83.0157 72.0655C81.7753 72.5224 80.6997 72.8455 78.7798 73.3386C77.3204 73.7134 69.4543 73.7018 67.9682 73.3228C67.3242 73.1585 66.2709 72.8928 65.6268 72.7323C64.9828 72.5715 64.3383 72.3229 64.1945 72.1799C64.0507 72.0365 63.7656 71.9194 63.5615 71.9194C63.3574 71.9194 62.5453 71.5084 61.7573 71.006C60.9692 70.5035 60.2004 70.0185 60.0489 69.9279C59.874 69.823 59.7724 70.6348 59.7701 72.1531Z" fill="#2B2A2A"/>
</svg>
