<svg width="94" height="95" viewBox="0 0 94 95" fill="none" xmlns="http://www.w3.org/2000/svg">
<path fill-rule="evenodd" clip-rule="evenodd" d="M41.4286 4.51817C41.2375 7.00326 41.0411 9.22803 40.9923 9.46236C40.9172 9.82341 40.4745 10.0019 38.0972 10.63C36.5536 11.0379 35.2508 11.3716 35.2022 11.3716C35.1534 11.3716 34.7519 10.8639 34.31 10.2433C33.8678 9.62299 32.9596 8.3778 32.2914 7.4766C31.6233 6.5752 30.9841 5.68944 30.8712 5.5079C30.2853 4.56792 29.4934 3.45208 29.4121 3.45208C29.0555 3.45208 21.1015 8.23687 21.1979 8.39323C21.2667 8.50492 21.2153 8.52644 21.0802 8.44278C20.765 8.24743 19.0303 9.2725 19.0303 9.65405C19.0303 9.81691 19.1366 9.95012 19.2666 9.95012C19.3964 9.95012 19.446 10.0072 19.3765 10.0768C19.3069 10.1465 19.4472 10.5804 19.6879 11.0414C19.9286 11.5021 20.1311 11.9249 20.138 11.9808C20.2016 12.5026 21.7577 16.0069 21.8895 15.9253C21.9846 15.8662 22.0126 15.9486 21.9514 16.1084C21.8903 16.2682 22.0654 16.8673 22.3405 17.4393L22.8408 18.4796L21.6562 19.635C21.0047 20.2704 20.5259 20.8782 20.5921 20.9858C20.6583 21.0934 20.6196 21.1237 20.5059 21.0532C20.3079 20.9304 19.6821 21.462 19.6521 21.7786C19.6442 21.8624 19.5695 21.9364 19.4859 21.9433C19.4023 21.95 19.1301 22.1475 18.8809 22.3823L18.428 22.8091L13.9207 21.1708C11.4417 20.2696 9.24364 19.5008 9.03612 19.4624C8.74721 19.409 8.47328 19.74 7.86671 20.8756C7.43101 21.6911 7.13704 22.4678 7.21357 22.6016C7.2901 22.7352 7.27897 22.7779 7.18908 22.6962C7.0342 22.5557 4.83386 26.2356 4.88306 26.553C4.94076 26.9273 4.845 27.265 4.71725 27.137C4.63991 27.0593 4.28256 27.5159 3.9232 28.1519L3.26986 29.3082L4.15967 29.8993C4.65428 30.2279 5.15578 30.4246 5.2888 30.3422C5.43173 30.2534 5.47445 30.2807 5.39488 30.4098C5.28414 30.5895 8.04548 32.6933 8.39209 32.6933C8.4502 32.6933 9.04482 33.1104 9.71314 33.6202C10.4068 34.1492 11.0293 34.4845 11.1638 34.401C11.3105 34.3103 11.345 34.3436 11.2549 34.4894C11.1755 34.6183 11.1986 34.7239 11.3063 34.7239C11.414 34.7239 11.3239 35.2951 11.1059 35.993C10.8878 36.6912 10.5479 38.0846 10.3503 39.0898L9.99112 40.9173L8.36294 41.1513C7.46746 41.2798 5.37868 41.5361 3.72135 41.7209C2.06381 41.9054 0.534636 42.1077 0.323066 42.1702C-0.0478404 42.2799 -0.0563494 42.4984 0.0833478 48.2981C0.162914 51.606 0.244916 54.3289 0.265567 54.349C0.286015 54.3693 2.43472 54.5246 5.04037 54.6944C7.76993 54.8723 9.8332 55.0928 9.90831 55.2148C9.98018 55.3314 10.3478 56.7031 10.7256 58.263C11.1032 59.823 11.4713 61.0629 11.5434 61.0182C11.6152 60.9735 11.6744 61.0659 11.6744 61.2237C11.6744 61.3815 11.6061 61.4682 11.5229 61.4166C11.4395 61.365 11.3409 61.3957 11.3035 61.4848C11.2662 61.5742 10.8712 61.8636 10.4258 62.1281C9.98039 62.3927 8.23843 63.4777 6.55457 64.5395L3.49318 66.4699L3.97058 67.5526C4.23317 68.1482 4.6968 69.0238 5.00069 69.4986C5.30458 69.9731 5.56049 70.4529 5.5692 70.5646C5.5781 70.6763 5.70161 70.7425 5.84414 70.7119C5.98647 70.6812 6.04397 70.7519 5.97189 70.8688C5.89982 70.9858 6.08567 71.5133 6.38491 72.0413C6.68414 72.5695 7.15972 73.4126 7.44174 73.9152C8.204 75.2739 8.42165 75.5531 8.58808 75.3862C8.67088 75.3031 8.72028 75.3265 8.69781 75.4382C8.61743 75.8372 8.71056 76.0933 9.09908 76.5426C9.31612 76.7934 9.5289 77.1045 9.57243 77.2337C9.62932 77.403 9.74492 77.3912 9.98565 77.192C10.1697 77.0397 10.261 76.8113 10.1887 76.6844C10.1164 76.5575 10.1338 76.5233 10.2274 76.6086C10.4515 76.8127 11.562 75.7407 11.3996 75.4772C11.3308 75.3655 11.3636 75.3293 11.4729 75.3969C11.6628 75.5147 14.3268 72.9906 14.2219 72.7924C14.1942 72.7399 14.2254 72.7057 14.2914 72.7167C14.5246 72.7551 15.5727 71.6169 15.465 71.4423C15.4051 71.345 15.4766 71.2904 15.6242 71.321C15.7715 71.3517 15.8695 71.2628 15.8416 71.1231C15.8139 70.9836 15.905 70.8922 16.0441 70.92C16.1833 70.948 16.272 70.8497 16.2415 70.7019C16.2109 70.5539 16.2621 70.4802 16.3554 70.538C16.5741 70.6735 19.1532 67.993 19.0641 67.723C19.0269 67.6107 19.0575 67.5798 19.1318 67.6543C19.312 67.8351 20.0515 67.1897 19.9159 66.9698C19.8578 66.8752 19.8851 66.8216 19.977 66.8506C20.2311 66.9308 21.259 65.9596 21.1343 65.7571C21.074 65.6594 21.112 65.6046 21.2185 65.6353C21.4677 65.7071 29.6777 57.4648 29.6038 57.2173C29.5732 57.1147 29.6277 57.08 29.7247 57.1401C29.964 57.2883 31.0214 56.1593 30.8264 55.9637C30.7414 55.8785 30.7629 55.8391 30.8744 55.8764C31.1216 55.9591 35.7537 51.407 35.6826 51.1511C35.6547 51.051 35.7002 50.9865 35.7839 51.008C35.9997 51.0632 38.8714 48.1537 38.8714 47.8796C38.8714 47.7545 38.9246 47.7056 38.9894 47.7707C39.0544 47.8359 39.2595 47.7299 39.4449 47.5354C39.6306 47.3409 40.352 46.5796 41.0478 45.8439C41.7439 45.1082 42.3146 44.5668 42.3162 44.6409C42.3181 44.7148 42.3952 44.6557 42.4877 44.5093C42.5802 44.3629 44.8794 41.997 47.5968 39.2518C50.4346 36.385 52.1928 34.4768 51.7276 34.7684C49.4531 36.1939 49.0128 36.505 49.1008 36.6244C49.1537 36.696 49.1385 36.7113 49.0672 36.6583C48.9043 36.5375 47.7796 37.1919 47.7796 37.4076C47.7796 37.4951 47.6863 37.5668 47.5723 37.5668C47.2927 37.5668 45.3476 38.9182 45.462 39.0329C45.5118 39.0829 45.4327 39.1237 45.2861 39.1237C44.853 39.1237 40.9103 41.8933 41.0411 42.1057C41.1071 42.2125 41.0577 42.236 40.9316 42.1576C40.6508 41.9836 35.5881 45.3683 35.7914 45.5941C35.8707 45.6822 35.8371 45.6981 35.7164 45.6294C35.4328 45.4676 33.965 46.4634 34.1188 46.7132C34.1832 46.8176 34.1063 46.8531 33.9478 46.7922C33.7892 46.7313 33.5177 46.8236 33.3442 46.9975C33.1709 47.1715 32.9747 47.3138 32.9083 47.3138C32.6885 47.3138 30.7928 48.6874 30.8849 48.78C30.9348 48.8299 30.8598 48.8707 30.7183 48.8707C30.2794 48.8707 28.7478 49.9914 28.8842 50.213C28.9598 50.3356 28.9142 50.361 28.7743 50.2743C28.6385 50.19 28.1011 50.4392 27.528 50.8522C26.9738 51.2514 26.4687 51.5782 26.4055 51.5782C26.3424 51.5782 25.9097 51.8397 25.4443 52.1595C24.2489 52.9807 22.8953 53.6441 22.6831 53.5126C22.3681 53.3172 21.8729 51.5319 21.6589 49.8196C21.2139 46.2589 22.3515 40.8256 24.3933 36.7588C24.7917 35.9654 25.0622 35.2265 24.9946 35.1166C24.927 35.0068 24.9618 34.942 25.0719 34.9726C25.2926 35.0342 26.9878 32.5357 26.9915 32.1438C26.9927 32.0091 27.0704 31.9464 27.1641 32.0045C27.2579 32.0625 27.403 31.9245 27.4869 31.6974C27.6569 31.2361 30.7951 27.9477 31.5193 27.4717C31.775 27.3035 31.925 27.0619 31.8523 26.9346C31.7798 26.807 31.7926 26.7683 31.8806 26.8481C32.0841 27.0322 32.8958 26.4732 32.9079 26.1406C32.913 26.0031 33.0383 25.9172 33.1865 25.9499C33.3345 25.9824 33.6036 25.8837 33.7846 25.7306C33.9656 25.5773 34.7216 25.1421 35.4646 24.7634C36.2074 24.3847 36.7836 24.0233 36.7447 23.9601C36.7059 23.8972 36.8267 23.8332 37.0134 23.8182C37.2003 23.8033 38.2421 23.4664 39.3291 23.0699C43.8956 21.4035 49.6331 21.1286 54.1571 22.3593C55.0479 22.6018 55.9731 22.8102 56.2131 22.8223C56.4528 22.8347 56.6172 22.8967 56.5781 22.96C56.539 23.0234 57.3448 23.4214 58.3688 23.8444C59.3931 24.2673 60.4726 24.7409 60.7682 24.8966C61.0638 25.0524 61.4934 25.1799 61.7228 25.1799C62.1656 25.1799 62.6438 24.5309 62.4002 24.2602C62.3207 24.1719 62.3555 24.1565 62.4776 24.2263C62.7571 24.3861 63.8344 23.2833 63.6249 23.0518C63.5399 22.958 63.5757 22.9417 63.7049 23.0156C63.8361 23.091 64.1819 22.8595 64.4898 22.4899C65.2911 21.5278 69.7554 16.8711 73.7126 12.8698L77.151 9.39271L76.1818 8.78799C73.5808 7.1647 69.8578 5.06542 68.028 4.19002L66.5122 3.46488L66.0607 4.01701C65.8125 4.32059 65.6566 4.70316 65.7145 4.86744C65.7726 5.03151 65.7574 5.1032 65.6811 5.02644C65.5284 4.87333 65.035 5.44272 64.4538 6.44301C64.2468 6.79898 63.3955 8.0866 62.5616 9.30397C61.4061 10.9914 60.9729 11.4802 60.7394 11.3596C60.5712 11.2725 59.2034 10.8166 57.7001 10.3463C56.1969 9.876 54.9035 9.43454 54.826 9.3653C54.7487 9.29605 54.6318 7.91441 54.5664 6.29497C54.501 4.67554 54.397 2.59658 54.3348 1.67528L54.2219 0H47.9993H41.7765L41.4286 4.51817ZM84.3235 20.5959C84.2122 20.6404 83.8668 20.7334 83.556 20.8022C83.2452 20.8711 83.045 21.0151 83.111 21.1223C83.1803 21.2348 83.0843 21.2606 82.8837 21.1834C82.6294 21.0853 82.5806 21.1217 82.7019 21.3186C82.8081 21.4908 82.7891 21.5388 82.649 21.4521C82.3356 21.2577 81.416 21.725 81.2826 22.1463C81.2207 22.3427 81.0137 22.626 80.8232 22.7756C80.511 23.0209 80.5042 23.0126 80.7546 22.6924C80.9162 22.4859 80.9435 22.337 80.82 22.337C80.4918 22.337 79.3457 23.8255 79.4546 24.1102C79.5076 24.2491 79.453 24.341 79.3329 24.3144C78.6942 24.1729 78.0657 28.1034 78.464 29.7488C78.7334 30.862 79.5793 32.3115 80.4967 33.2316C81.3753 34.1129 83.1641 35.1239 83.8514 35.128C84.6189 35.1325 84.8437 35.4364 85.4249 37.2565C87.6654 44.2715 87.7431 52.4442 85.6393 59.8161C82.282 71.5808 72.8597 81.6881 61.4456 85.7682C56.5313 87.5249 53.6519 88.0102 48.0833 88.0202C43.4364 88.0285 42.2646 87.9014 38.64 86.9966C35.4966 86.2117 29.9632 84.0925 29.9632 83.6734C29.9632 83.5989 31.1247 82.4859 32.5445 81.2001C33.9644 79.9143 36.128 77.9513 37.3529 76.8379C59.2882 56.8999 61.4094 55.0128 61.7234 55.1553C61.9046 55.2374 62.8274 55.3422 63.7739 55.3879C65.1735 55.4555 65.7084 55.3907 66.6393 55.0404C71.6662 53.1489 73.086 46.6752 69.3035 42.8936C66.3741 39.9652 61.7428 39.9993 58.7798 42.9713C57.443 44.3122 56.8297 45.8018 56.7249 47.9641L56.6392 49.7311L53.8848 52.2284C52.37 53.6019 50.0804 55.678 48.797 56.842C43.4103 61.7273 34.4571 69.833 33.3031 70.8692C32.619 71.4835 30.2893 73.5935 28.1262 75.558C25.963 77.5226 22.9631 80.2457 21.4599 81.6095C19.9566 82.9733 18.6993 84.1665 18.6661 84.2611C18.5748 84.52 22.4096 87.3507 24.6168 88.6538C30.3774 92.0541 36.7745 94.1521 43.5085 94.8498C46.3889 95.1483 52.6334 94.9806 55.2706 94.5339C64.8577 92.91 73.2306 88.6905 80.0444 82.0493C84.0537 78.1418 86.8549 74.2896 89.2822 69.3463C91.4955 64.8386 92.9441 60.1083 93.6626 55.042C94.1157 51.8479 94.1119 45.9555 93.6545 42.7551C93.2838 40.1603 92.2217 35.737 91.5331 33.9208C91.1227 32.838 91.1217 32.8037 91.4916 32.3978C92.6503 31.1262 93.2561 28.6777 92.908 26.673C92.5958 24.8745 91.0327 22.3104 90.4637 22.6631C90.366 22.7238 90.3111 22.6619 90.3417 22.5259C90.4192 22.1813 88.8556 21.1026 88.4232 21.2023C88.228 21.2472 88.1136 21.2106 88.1689 21.1211C88.2239 21.0313 88.1104 20.8946 87.916 20.8171C87.506 20.6534 84.6232 20.4759 84.3235 20.5959ZM87.1641 25.029C88.7852 25.8699 89.3913 27.7921 88.5776 29.5119C87.5698 31.642 84.5807 31.8956 82.9808 29.9866C82.3832 29.2735 82.1882 28.2904 82.4249 27.1833C82.5933 26.3956 82.8171 26.0429 83.5431 25.4205C84.3649 24.7159 84.5505 24.646 85.5063 24.6796C86.0868 24.6999 86.8328 24.8572 87.1641 25.029ZM65.8005 45.334C66.9501 46.1188 67.3169 46.794 67.3169 48.1261C67.3169 49.0098 67.2098 49.4586 66.8995 49.8755C65.5851 51.6413 63.5119 51.95 61.9305 50.6152C59.5557 48.611 60.9603 44.896 64.0982 44.8818C64.8419 44.8783 65.3189 45.005 65.8005 45.334Z" fill="#2B2A2A"/>
</svg>
