<svg width="210" height="82" viewBox="0 0 210 82" fill="none" xmlns="http://www.w3.org/2000/svg">
<path d="M132.534 39.9176C132.534 45.3963 130.919 50.752 127.894 55.3074C124.869 59.8628 120.568 63.4133 115.537 65.5099C110.506 67.6065 104.97 68.1551 99.6291 67.0862C94.2881 66.0174 89.3821 63.3791 85.5315 59.5051C81.6808 55.6311 79.0585 50.6952 77.9961 45.3218C76.9337 39.9484 77.479 34.3786 79.5629 29.317C81.6469 24.2553 85.1759 19.929 89.7038 16.8852C94.2317 13.8414 99.555 12.2168 105.001 12.2168V19.7784C101.042 19.7784 97.1714 20.9596 93.8795 23.1725C90.5876 25.3854 88.0219 28.5307 86.5068 32.2107C84.9917 35.8907 84.5953 39.94 85.3677 43.8466C86.1401 47.7532 88.0466 51.3417 90.8461 54.1582C93.6456 56.9747 97.2124 58.8928 101.095 59.6698C104.978 60.4469 109.003 60.0481 112.661 58.5238C116.319 56.9995 119.445 54.4182 121.645 51.1064C123.844 47.7945 125.018 43.9008 125.018 39.9176H132.534Z" fill="#2B2A2A"/>
<path d="M106.13 20.456C108.708 20.456 111.26 20.9667 113.641 21.9591C116.022 22.9514 118.186 24.4058 120.008 26.2394C121.831 28.073 123.276 30.2497 124.263 32.6454C125.249 35.041 125.757 37.6087 125.757 40.2017L106.13 40.2017V20.456Z" fill="#2B2A2A"/>
<path fill-rule="evenodd" clip-rule="evenodd" d="M98.2232 0.315739C92.9664 1.25132 86.9073 3.65689 82.793 6.44232C73.5759 12.6823 67.5343 21.8812 65.45 32.8488C64.7479 36.5428 64.7479 43.3603 65.45 47.0543C68.6625 63.9584 81.6185 76.7843 98.3166 79.5913C101.859 80.1868 109.737 80.0447 112.908 79.3282C125.987 76.3723 136.45 67.6186 141.636 55.2935C145.073 47.1248 145.601 37.5747 143.105 28.7291C142.323 25.9593 140.02 20.8857 138.38 18.3173C132.661 9.36468 123.509 2.99576 112.908 0.591043C110.095 -0.0470705 101.199 -0.213844 98.2232 0.315739ZM109.964 6.72415C118.422 7.91004 127.207 13.44 132.2 20.72C134.233 23.6853 136.296 28.1345 137.231 31.5703C137.95 34.2099 138.005 34.8043 138.011 39.9515C138.016 45.0732 137.96 45.702 137.265 48.2743C134.621 58.0702 128.329 65.7997 119.403 70.219C116.416 71.6978 111.774 73.1903 110.157 73.1917L109.382 73.1926L109.383 46.131C109.384 31.2469 109.383 18.398 109.381 17.5778C109.378 16.3109 109.298 16.0862 108.849 16.0862C108.368 16.0862 108.302 15.733 108.117 12.1086L107.913 8.13107H104.295V16.0862H102.883L102.873 31.9254C102.865 44.1069 102.773 48.2726 102.473 49.9642C100.978 58.4006 96.3099 64.2354 90.2906 65.1914C78.9036 66.9998 69.0714 50.8088 71.6904 34.5611C73.4195 23.8348 80.4384 14.4605 90.3477 9.64368C96.4743 6.66534 102.815 5.72181 109.964 6.72415ZM145.815 61.7437C141.458 69.8855 134.91 76.5857 127.148 80.8422L125.051 81.992L168.681 81.9582C195.026 81.9378 211.36 81.8273 209.911 81.6792C187.048 79.3444 166.364 72.6266 151.737 62.785C149.796 61.4786 147.936 60.2115 147.604 59.9692C147.017 59.541 146.966 59.5913 145.815 61.7437ZM58.2881 62.6892C44.0418 72.4567 22.9248 79.3473 0.0904862 81.6792C-1.36131 81.8275 14.7618 81.9395 40.8919 81.9622L84.0935 82L81.1303 80.2243C77.0954 77.8065 75.0229 76.1678 71.5367 72.6383C68.3555 69.4176 65.7679 65.9551 63.7271 62.1884C63.027 60.8962 62.4328 59.8527 62.4066 59.8689C62.3803 59.8851 60.5269 61.1542 58.2881 62.6892Z" fill="#2B2A2A"/>
</svg>
