<svg width="205" height="23" viewBox="0 0 205 23" fill="none" xmlns="http://www.w3.org/2000/svg">
<rect width="70.6429" height="23" fill="#5858F6"/>
<path d="M4.78418 3.6604H8.07647V15.6073H19.629V3.6604H22.9213V15.6073H25.6813V20.0955H23.631V18.0715H4.78418V3.6604Z" fill="#F5F7FA"/>
<path d="M32.236 6.12469C31.1189 6.12469 30.5603 6.6504 30.5603 7.70183V14.0301C30.5603 15.0815 31.1189 15.6073 32.236 15.6073H39.8654C40.9826 15.6073 41.5412 15.0815 41.5412 14.0301V7.70183C41.5412 6.6504 40.9826 6.12469 39.8654 6.12469H32.236ZM31.1517 18.0715C28.5626 18.0715 27.268 16.9018 27.268 14.5624V7.16954C27.268 4.83011 28.5626 3.6604 31.1517 3.6604H40.9497C43.5389 3.6604 44.8334 4.83011 44.8334 7.16954V14.5624C44.8334 16.9018 43.5389 18.0715 40.9497 18.0715H31.1517Z" fill="#F5F7FA"/>
<path d="M51.0282 6.12469V18.0715H47.7359V3.6604H66.0702V18.0715H62.7582V6.12469H51.0282Z" fill="#F5F7FA"/>
<path d="M89.0427 18.0715V11.7038H87.8598L81.3738 18.0715H77.6675V17.9335L84.8435 10.659L78.0815 3.7984V3.6604H81.6498L87.8598 9.61411H89.0427V3.6604H92.2364V9.61411H93.4193L99.6095 3.6604H103.198V3.7984L96.4355 10.659L103.631 17.9335V18.0715H99.925L93.4193 11.7038H92.2364V18.0715H89.0427Z" fill="#303030"/>
<path d="M107.952 9.27897C107.952 10.2253 108.451 10.6984 109.45 10.6984H118.874V3.6604H122.166V14.9567C122.166 17.0333 121.003 18.0715 118.677 18.0715H106.276V15.6073H117.375C118.374 15.6073 118.874 15.1407 118.874 14.2075V12.8078H108.149C105.81 12.8078 104.64 11.7695 104.64 9.69297V3.6604H107.952V9.27897Z" fill="#303030"/>
<path d="M139.363 7.70183C139.363 6.6504 138.805 6.12469 137.688 6.12469H128.422V10.8364H137.688C138.805 10.8364 139.363 10.3107 139.363 9.25926V7.70183ZM125.13 3.6604H138.732C141.322 3.6604 142.616 4.83011 142.616 7.16954V9.71269C142.616 12.0521 141.322 13.2218 138.732 13.2218H128.422V18.0715H125.13V3.6604Z" fill="#303030"/>
<path d="M148.425 10.935V18.0715H145.133V3.6604H148.425V8.84526H160.155V3.6604H163.467V18.0715H160.155V10.935H148.425Z" fill="#303030"/>
<path d="M180.521 3.6604C182.86 3.6604 184.03 4.69869 184.03 6.77526V18.0715H180.738V13.2021H169.698V18.0715H166.405V6.77526C166.405 4.69869 167.569 3.6604 169.895 3.6604H180.521ZM169.698 11.1124H180.738V7.5244C180.738 6.59126 180.232 6.12469 179.22 6.12469H171.196C170.197 6.12469 169.698 6.59126 169.698 7.5244V11.1124Z" fill="#303030"/>
<path d="M192.921 6.12469C192.895 8.20126 192.79 9.99526 192.606 11.5067C192.422 13.005 192.113 14.2404 191.679 15.213C191.246 16.1855 190.661 16.9084 189.925 17.3815C189.189 17.8415 188.262 18.0715 187.145 18.0715H186.159V15.6073H187.007C187.651 15.6073 188.183 15.443 188.604 15.1144C189.025 14.7858 189.36 14.2141 189.609 13.3993C189.859 12.5844 190.03 11.487 190.122 10.107C190.214 8.71383 190.26 6.95926 190.26 4.84326V3.6604H204.711V18.0715H201.399V6.12469H192.921Z" fill="#303030"/>
</svg>
